<svg width="44" height="44" viewBox="0 0 44 44" fill="none" xmlns="http://www.w3.org/2000/svg">
<g filter="url(#filter0_d_1_52)">
<path d="M22 32C28.6274 32 34 26.6274 34 20C34 13.3726 28.6274 8 22 8C15.3726 8 10 13.3726 10 20C10 26.6274 15.3726 32 22 32Z" fill="white"/>
</g>
<path d="M23 20.9H24.4286L25 18.5H23V17.3C23 16.682 23 16.1 24.1429 16.1H25V14.084C24.8137 14.0582 24.1103 14 23.3674 14C21.816 14 20.7143 14.9942 20.7143 16.82V18.5H19V20.9H20.7143V26H23V20.9Z" fill="#122659"/>
<defs>
<filter id="filter0_d_1_52" x="0" y="0" width="44" height="44" filterUnits="userSpaceOnUse" color-interpolation-filters="sRGB">
<feFlood flood-opacity="0" result="BackgroundImageFix"/>
<feColorMatrix in="SourceAlpha" type="matrix" values="0 0 0 0 0 0 0 0 0 0 0 0 0 0 0 0 0 0 127 0" result="hardAlpha"/>
<feOffset dy="2"/>
<feGaussianBlur stdDeviation="5"/>
<feColorMatrix type="matrix" values="0 0 0 0 0.645556 0 0 0 0 0.658545 0 0 0 0 0.691667 0 0 0 0.1 0"/>
<feBlend mode="normal" in2="BackgroundImageFix" result="effect1_dropShadow_1_52"/>
<feBlend mode="normal" in="SourceGraphic" in2="effect1_dropShadow_1_52" result="shape"/>
</filter>
</defs>
</svg>
